{"glyphs":{":":{"x_min":0,"x_max":324,"ha":324,"o":"m 162 224 q 212 224 248 188 q 283 153 283 102 q 283 51 248 16 q 212 -19 162 -19 q 111 -19 75 17 q 39 53 39 103 q 39 153 74 188 q 110 224 162 224 z m 74 523 q 111 558 160 558 q 211 558 247 521 q 263 505 272 482 q 281 458 281 436 q 281 385 246 350 q 210 315 159 315 q 109 315 74 350 q 38 384 38 437 q 38 489 74 523 z"},"$":{"x_min":0,"x_max":618,"ha":618,"o":"m 296 262 l 281 265 l 270 267 q 255 270 245 273 q 235 276 193 289 l 135 310 q 79 333 48 380 q 16 428 16 486 q 16 525 30 562 q 45 598 76 632 q 107 666 154 690 q 200 713 263 723 l 297 727 l 297 819 q 297 826 302 832 q 308 839 315 839 q 322 839 328 834 q 333 828 333 818 l 333 728 q 385 728 439 712 q 493 695 520 674 q 546 654 555 622 q 558 613 559 600 q 560 588 560 587 q 560 556 544 534 q 514 491 466 491 q 442 491 406 502 l 374 511 l 368 514 l 344 521 l 341 522 l 338 523 l 333 524 l 332 471 l 354 466 q 417 448 448 437 q 479 426 498 416 q 551 388 580 342 q 608 295 608 239 q 608 200 595 164 q 582 129 552 94 q 482 13 369 -4 l 331 -7 l 330 -97 q 330 -104 326 -110 q 322 -116 312 -116 q 306 -116 300 -111 q 294 -106 294 -97 l 295 -9 l 258 -8 q 195 -8 152 4 q 109 15 79 34 q 12 74 12 130 q 12 143 16 160 q 20 178 30 193 q 57 235 101 235 q 109 235 117 235 q 120 235 136 231 l 180 219 l 219 209 l 251 201 l 259 199 l 295 196 z m 251 525 q 242 517 242 510 q 242 505 249 498 q 252 495 262 490 l 268 488 l 278 485 l 296 480 l 297 531 l 286 532 q 263 532 251 525 z m 350 203 q 362 209 368 219 q 371 225 371 231 q 371 241 365 243 l 355 247 l 342 251 l 337 252 l 332 254 l 331 197 l 340 200 z"},"?":{"x_min":0,"x_max":549,"ha":549,"o":"m 266 226 q 317 226 353 190 q 389 154 389 104 q 389 80 380 58 q 371 36 352 17 q 317 -18 266 -18 q 215 -18 180 18 q 144 53 144 104 q 144 155 180 190 q 215 226 266 226 z m 267 244 q 218 244 188 272 q 157 300 157 356 l 158 371 q 158 466 260 485 l 280 489 l 289 491 q 307 497 307 514 q 307 521 300 532 q 290 546 249 546 q 240 545 228 542 q 217 538 200 530 l 190 524 l 162 506 l 135 492 q 126 487 116 484 q 105 481 90 481 q 73 481 58 487 q 7 508 7 571 q 7 604 28 636 q 43 658 68 676 q 92 695 133 713 q 194 739 261 739 q 272 739 284 738 q 296 736 308 735 q 403 720 454 680 q 506 641 523 574 q 526 559 528 547 q 530 535 530 522 q 530 463 495 418 q 460 374 393 352 l 378 348 q 373 313 364 296 q 336 244 267 244 z"},"'":{"x_min":0,"x_max":224,"ha":224,"o":"m 51 720 l 195 720 l 173 468 l 29 468 z"},"a":{"x_min":0,"x_max":636,"ha":636,"o":"m 488 555 q 494 556 499 556 q 507 556 511 556 q 530 556 543 552 q 556 549 566 539 q 607 498 607 439 l 607 103 q 607 52 576 22 q 545 -8 497 -8 q 471 -8 436 18 q 425 26 406 44 l 406 39 q 406 12 380 0 q 353 -11 308 -11 q 269 -11 224 -2 q 179 6 137 35 q 95 64 63 112 q 41 147 30 189 q 20 231 20 279 q 20 379 82 454 q 145 528 233 545 q 261 550 282 550 q 357 550 406 503 q 411 512 416 517 q 446 551 488 555 z m 381 220 q 384 225 387 232 q 390 239 392 250 q 393 261 393 268 q 392 275 392 279 q 385 330 346 347 q 327 354 315 354 q 289 354 269 335 q 249 316 243 283 l 241 265 q 241 232 262 206 q 284 179 316 179 q 360 179 381 220 z"},"L":{"x_min":0,"x_max":512,"ha":512,"o":"m 29 612 q 29 660 63 694 q 79 710 101 719 q 123 728 145 728 q 193 728 227 694 q 261 659 261 611 l 261 199 l 430 199 q 472 199 500 170 q 528 141 528 98 q 528 57 500 28 q 471 0 430 0 l 150 0 q 96 0 62 34 q 29 69 29 125 z"},"3":{"x_min":0,"x_max":677,"ha":677,"o":"m 532 390 q 576 365 600 324 q 625 282 625 234 q 625 188 606 146 q 586 105 544 68 q 479 9 380 -6 q 367 -8 356 -9 q 344 -10 330 -10 q 262 -10 192 19 q 123 48 88 90 q 53 132 53 178 q 54 185 54 189 q 58 227 88 252 q 117 278 155 278 q 180 278 204 266 q 217 259 243 239 l 257 228 l 266 220 l 274 214 q 296 200 311 195 q 326 190 343 190 l 356 192 q 375 196 385 207 q 395 218 395 234 q 395 243 390 253 q 379 273 345 277 l 335 278 l 309 279 l 289 282 q 258 290 238 315 q 217 340 217 374 q 217 432 262 461 q 286 476 327 476 q 352 476 361 484 q 370 493 370 503 q 370 509 366 516 q 361 522 347 526 l 338 528 l 332 528 q 317 530 298 520 q 279 511 247 484 q 244 481 227 474 q 223 473 214 470 q 206 468 196 466 q 186 465 181 465 q 141 465 112 494 q 83 523 83 566 q 83 573 86 596 q 89 619 122 653 q 150 681 210 704 q 270 727 335 727 q 346 727 357 727 q 368 727 382 725 q 439 718 476 700 q 513 683 539 652 q 583 597 583 538 q 583 490 554 441 q 540 417 518 398 z"},";":{"x_min":0,"x_max":341,"ha":341,"o":"m 178 558 q 230 558 266 522 q 301 485 301 434 q 301 384 264 348 q 227 312 179 312 q 128 312 92 348 q 55 383 55 435 q 55 486 91 522 q 127 558 178 558 z m 81 164 q 95 194 122 211 q 148 228 180 228 q 204 228 224 218 q 253 204 270 177 q 287 150 287 119 q 287 106 285 96 q 283 86 277 74 l 183 -121 q 164 -160 122 -176 q 105 -183 85 -183 q 53 -183 28 -165 q 2 -147 -9 -116 q -15 -98 -15 -79 q -15 -55 -6 -34 z"},"J":{"x_min":0,"x_max":488,"ha":488,"o":"m 231 612 q 231 660 265 694 q 299 728 346 728 q 393 728 426 693 q 459 658 459 610 l 459 252 q 459 131 393 61 q 327 -9 214 -9 q 204 -9 199 -9 q 192 -9 184 -8 q 176 -7 172 -7 l 130 0 q 63 16 28 50 q -6 84 -6 124 q -6 147 6 168 q 33 215 85 215 q 107 215 128 208 l 142 204 l 157 198 l 171 192 l 190 188 q 231 183 231 252 z"},"V":{"x_min":0,"x_max":658,"ha":658,"o":"m 329 329 l 447 653 q 460 688 488 708 q 516 728 553 728 q 579 728 605 716 q 637 700 654 673 q 671 646 671 614 q 671 592 662 571 l 438 68 q 412 8 367 -5 q 346 -11 326 -11 q 255 -11 220 68 l -4 571 q -13 592 -13 614 q -13 683 53 716 q 79 728 105 728 q 140 728 170 708 q 199 688 212 653 z"},"\"":{"x_min":0,"x_max":426,"ha":426,"o":"m 51 720 l 195 720 l 173 468 l 29 468 z m 253 720 l 397 720 l 375 468 l 231 468 z"},"7":{"x_min":0,"x_max":676,"ha":676,"o":"m 535 720 q 577 720 606 697 q 644 665 644 621 q 644 597 632 576 l 337 57 q 300 -5 230 -5 q 202 -5 175 9 q 148 23 132 49 q 117 75 117 106 q 117 136 134 162 l 370 521 l 135 521 q 93 521 62 550 q 32 580 32 621 q 32 662 63 691 q 94 720 135 720 z"},"S":{"x_min":0,"x_max":618,"ha":618,"o":"m 30 193 q 57 235 101 235 q 109 235 117 235 q 120 235 136 231 l 180 219 l 220 209 l 249 202 l 260 199 l 277 196 q 300 193 313 193 q 321 193 329 194 q 337 196 340 197 q 358 203 366 210 q 373 216 373 226 q 373 235 363 242 l 355 245 l 336 251 l 323 255 l 270 268 l 260 270 l 194 289 q 166 297 144 306 q 121 315 102 327 q 61 352 39 394 q 17 435 17 484 q 17 524 32 562 q 46 599 77 633 q 108 667 160 692 q 211 716 275 724 q 302 727 328 727 q 383 727 437 711 q 491 695 518 674 q 545 654 555 622 q 558 613 559 600 q 560 588 560 587 q 560 556 544 534 q 515 492 466 492 q 438 492 404 502 l 396 505 l 367 514 l 355 517 l 327 524 l 313 527 l 303 529 l 290 530 q 263 530 253 522 q 243 514 243 505 q 243 499 249 494 l 265 487 l 284 482 l 291 480 l 311 475 l 344 467 l 410 449 q 459 435 497 416 q 550 389 579 342 q 608 294 608 239 q 608 200 595 164 q 582 129 552 94 q 506 40 434 16 q 362 -7 255 -7 q 195 -7 152 4 q 109 16 79 34 q 41 56 27 80 q 13 103 13 138 q 13 167 30 193 z"},"}":{"x_min":0,"x_max":410,"ha":410,"o":"m 214 842 q 261 842 288 816 q 314 789 314 742 l 314 432 q 314 402 333 381 q 352 360 381 360 q 352 360 333 340 q 314 320 314 288 l 314 -22 q 314 -70 288 -96 q 262 -122 214 -122 l 71 -122 q 53 -122 41 -109 q 29 -96 29 -78 q 29 -60 41 -48 q 53 -36 71 -36 l 84 -36 q 141 -36 141 12 l 141 266 q 141 330 203 354 l 230 360 l 203 366 q 175 377 158 401 q 141 425 141 454 l 141 708 q 141 756 84 756 l 71 756 q 53 756 41 769 q 29 782 29 800 q 29 818 41 830 q 53 842 71 842 z"},"Z":{"x_min":0,"x_max":698,"ha":698,"o":"m 317 521 l 126 521 q 84 521 54 552 q 25 582 25 621 q 25 663 56 692 q 86 720 126 720 l 541 720 l 565 717 q 603 708 626 680 q 648 651 648 617 q 648 597 639 577 l 621 550 l 341 199 l 586 199 q 627 199 656 170 q 685 141 685 99 q 685 58 656 29 q 627 0 585 0 l 122 0 q 74 0 44 28 q 13 57 13 99 q 13 110 18 128 q 22 146 34 163 z"},"x":{"x_min":0,"x_max":587,"ha":587,"o":"m 150 281 l 59 352 q 41 366 31 389 q 21 412 21 437 q 21 459 28 477 q 40 509 68 528 q 97 548 131 548 q 160 548 187 533 q 207 522 219 504 l 294 404 l 368 504 q 380 522 400 533 q 427 548 456 548 q 490 548 518 528 q 547 509 559 477 q 566 459 566 436 q 566 381 529 352 l 437 281 l 557 184 q 593 154 593 106 q 593 60 560 26 q 526 -8 482 -8 q 428 -8 388 41 l 294 159 l 199 41 q 159 -8 105 -8 q 61 -8 28 26 q 10 45 2 64 q -5 84 -5 107 q -5 155 30 184 z"},")":{"x_min":0,"x_max":319,"ha":319,"o":"m 25 33 l 26 36 l 45 94 l 58 133 q 70 176 76 210 q 92 291 92 359 q 92 427 76 508 q 69 543 64 564 q 58 586 45 624 l 30 669 l 25 684 q 17 708 17 725 q 17 766 55 795 q 80 814 109 814 q 114 814 136 810 q 159 807 176 786 q 194 765 216 703 l 239 632 q 253 583 260 545 q 281 446 281 354 q 281 213 225 39 l 215 10 q 194 -47 176 -68 q 157 -90 126 -95 q 121 -96 111 -96 q 78 -96 55 -77 q 17 -48 17 -13 q 17 -5 18 6 q 20 16 25 33 z"},"&":{"x_min":0,"x_max":744,"ha":744,"o":"m 134 436 l 128 444 q 98 489 98 539 q 98 603 144 654 q 191 706 273 724 q 317 733 360 733 q 383 733 406 730 q 494 720 546 680 q 597 641 611 577 q 616 550 616 530 q 616 480 590 440 q 564 400 517 376 l 502 369 l 529 350 l 541 354 l 549 357 l 561 361 l 570 365 q 592 373 614 373 q 621 373 635 371 q 675 363 702 337 q 729 311 734 277 q 735 272 735 267 q 735 262 735 257 q 735 226 722 206 q 710 187 691 184 q 701 167 706 156 q 721 121 721 89 q 721 70 716 56 q 712 41 698 22 q 685 4 668 -7 q 652 -18 630 -18 q 572 -18 538 25 l 519 49 l 505 41 q 457 13 412 0 q 367 -12 313 -12 q 258 -12 204 4 q 119 30 71 94 q 23 157 23 234 q 23 308 69 364 q 77 374 86 384 q 95 393 103 400 q 111 407 118 412 q 124 418 140 428 z m 405 522 q 408 528 408 535 q 408 547 400 556 q 392 565 378 567 q 365 570 355 562 q 339 550 342 530 q 345 519 361 507 l 367 503 l 381 495 l 399 513 z m 284 190 q 292 184 306 180 q 320 177 336 177 q 342 178 345 178 q 352 179 365 184 q 367 184 371 187 l 276 284 q 273 282 270 280 q 250 262 250 240 q 250 211 284 190 z"},"_":{"x_min":0,"x_max":418,"ha":418,"o":"m 29 -43 l 29 0 l 389 0 l 389 -43 z"},"v":{"x_min":0,"x_max":533,"ha":533,"o":"m 267 296 l 324 474 q 335 506 365 526 q 395 547 432 547 q 479 547 511 515 q 543 483 543 437 q 542 429 542 425 q 539 401 529 383 l 373 73 q 334 -6 270 -6 q 251 -6 230 1 q 208 8 193 23 q 178 38 160 73 l 4 383 q -8 405 -8 425 q -9 433 -9 438 q -9 482 22 514 q 54 547 101 547 q 140 547 170 527 q 199 507 209 474 z"},"O":{"x_min":0,"x_max":806,"ha":806,"o":"m 87 566 q 140 642 224 686 q 308 730 403 730 q 499 730 582 687 q 665 644 719 566 q 786 471 786 360 q 786 249 719 154 q 666 76 582 33 q 499 -10 403 -10 q 307 -10 224 33 q 141 76 87 154 q 20 250 20 360 q 20 470 87 566 z m 555 391 q 545 453 502 491 q 460 529 403 529 q 338 529 294 482 q 249 434 249 360 q 249 286 294 238 q 338 191 402 191 q 417 191 432 194 q 487 205 522 250 q 558 296 558 359 q 558 374 555 391 z"},"(":{"x_min":0,"x_max":319,"ha":319,"o":"m 58 545 q 62 566 67 587 q 69 596 80 632 l 103 703 q 124 763 142 785 q 161 807 183 810 q 205 814 211 814 q 240 814 264 795 q 277 784 286 772 q 301 752 301 727 q 301 720 299 710 q 297 699 294 684 l 273 624 q 251 557 243 508 q 227 418 227 359 q 227 300 243 210 q 252 156 273 94 l 289 47 l 294 33 q 302 9 302 -7 q 302 -47 264 -77 q 239 -96 208 -96 q 198 -96 193 -95 q 161 -89 143 -68 q 125 -47 103 14 l 80 86 q 67 129 58 173 q 38 272 38 359 q 38 445 58 545 z"},"C":{"x_min":0,"x_max":670,"ha":670,"o":"m 105 588 q 198 701 349 722 q 391 728 428 728 q 534 728 597 684 q 653 645 653 591 q 653 557 633 532 q 618 513 600 504 q 583 495 559 495 q 539 495 520 498 q 502 501 493 504 q 472 512 460 516 q 448 521 436 522 q 423 524 403 524 q 346 524 304 490 q 262 457 249 395 q 246 378 246 363 q 246 348 249 331 q 273 204 391 204 q 439 204 506 227 l 516 230 q 533 234 553 234 q 601 234 629 203 q 654 175 654 141 q 654 111 633 79 q 620 60 597 44 q 574 27 536 13 q 485 -7 414 -7 q 379 -7 340 -1 q 236 16 159 79 q 130 103 102 137 q 20 244 20 364 q 20 420 42 479 q 64 538 105 588 z"},"W":{"x_min":0,"x_max":1010,"ha":1010,"o":"m 53 706 q 75 722 105 727 q 110 728 120 728 q 160 728 190 702 q 220 677 233 630 l 318 339 l 403 639 q 413 674 429 694 q 445 714 466 722 q 486 730 507 730 q 541 730 568 706 q 594 683 607 639 l 692 339 l 777 630 q 790 677 820 702 q 851 728 891 728 q 900 728 916 726 q 932 724 956 707 q 980 690 994 664 q 1008 637 1008 612 q 1008 601 1005 592 l 875 120 q 839 -8 723 -8 q 673 -8 634 22 q 594 52 578 102 l 505 331 l 432 101 q 416 51 377 21 q 338 -9 287 -9 q 171 -9 135 119 l 5 592 q 2 603 2 613 q 2 638 16 664 q 29 689 53 706 z"},"A":{"x_min":0,"x_max":686,"ha":686,"o":"m 169 600 q 193 660 238 693 q 284 726 343 726 q 402 726 448 694 q 493 661 517 600 l 689 160 q 702 124 702 99 q 702 65 684 39 q 666 13 632 -1 q 609 -11 584 -11 q 548 -11 519 10 q 490 32 476 71 l 465 104 l 222 104 l 210 71 q 196 33 166 11 q 137 -11 101 -11 q 77 -11 54 -1 q -16 29 -16 99 q -16 124 -3 160 z m 343 495 l 289 303 l 397 303 z"},"f":{"x_min":0,"x_max":362,"ha":362,"o":"m 72 541 l 72 593 q 72 680 114 730 q 156 780 222 780 l 269 780 q 331 780 369 748 q 407 717 407 673 q 407 659 403 647 q 384 583 325 583 l 316 582 l 312 582 l 305 579 q 298 576 296 571 q 293 567 291 562 q 291 561 291 559 l 292 541 l 298 541 q 337 541 365 512 q 393 483 393 442 q 393 402 365 374 q 337 346 297 346 l 291 346 l 291 101 q 291 56 259 23 q 227 -10 181 -10 q 134 -10 102 22 q 70 54 70 102 l 70 347 l 66 347 q 24 352 -4 380 q -32 409 -32 447 q -32 485 -3 513 q 26 541 67 541 z"},"Q":{"x_min":0,"x_max":808,"ha":808,"o":"m 790 93 q 818 65 818 24 q 818 -17 789 -48 q 760 -79 716 -79 q 677 -79 649 -51 l 572 26 l 564 23 l 542 15 q 464 -10 397 -10 q 331 -10 264 16 q 154 57 87 154 q 20 251 20 360 q 20 469 87 566 q 141 644 224 687 q 308 730 403 730 q 418 730 436 728 q 453 727 482 722 q 511 716 542 704 q 655 661 722 563 q 786 469 786 358 q 786 304 771 256 q 756 207 722 161 z m 535 272 q 557 310 557 360 q 557 433 512 481 q 468 529 403 529 q 338 529 294 482 q 249 434 249 360 q 249 296 284 250 q 318 205 373 194 q 390 191 405 191 q 491 191 535 272 z"},"w":{"x_min":0,"x_max":841,"ha":841,"o":"m 260 315 l 307 451 q 341 551 417 551 q 436 551 460 544 q 483 537 501 516 q 519 494 534 451 l 581 315 l 639 479 q 650 510 680 530 q 711 549 748 549 q 760 549 770 546 q 780 543 793 537 q 821 523 838 496 q 854 470 854 438 q 854 409 841 382 l 688 72 q 668 32 642 14 q 615 -3 578 -3 q 546 -3 519 17 q 492 37 478 71 l 420 213 l 362 71 q 348 36 322 16 q 297 -3 263 -3 q 227 -3 200 14 q 173 32 153 72 l 0 382 q -14 409 -14 439 q -14 507 48 537 q 62 544 70 546 q 79 549 93 549 q 130 549 160 530 q 190 511 202 479 z"},"-":{"x_min":0,"x_max":506,"ha":506,"o":"m 396 386 q 432 386 457 360 q 482 334 482 296 q 482 259 456 233 q 430 207 395 207 l 115 207 q 78 207 51 233 q 24 259 24 296 q 24 332 50 360 q 78 386 115 386 z"},"E":{"x_min":0,"x_max":531,"ha":531,"o":"m 29 604 q 29 654 62 687 q 95 720 145 720 l 420 720 q 459 720 488 691 q 517 662 517 620 q 517 579 488 549 q 459 519 418 519 l 260 519 l 260 458 l 390 458 q 434 458 467 427 q 497 400 497 360 q 497 320 466 291 q 432 262 391 262 l 260 262 l 260 200 l 410 200 q 455 200 487 170 q 519 141 519 99 q 519 59 488 30 q 456 0 413 0 l 144 0 q 111 0 82 20 q 53 40 38 74 q 29 95 29 118 z"},"s":{"x_min":0,"x_max":509,"ha":509,"o":"m 149 187 l 169 181 l 183 176 q 203 168 216 164 q 230 161 243 159 l 249 159 l 261 159 q 274 159 279 168 q 284 180 268 190 l 261 194 l 252 197 l 232 202 l 206 210 l 187 215 q 119 233 86 256 q 54 279 38 317 q 27 342 27 373 q 27 444 92 495 q 161 549 271 549 q 329 549 369 538 q 409 527 433 514 q 457 500 470 484 q 482 467 482 443 q 482 419 467 399 q 452 379 426 372 q 414 369 401 369 q 386 369 379 370 q 372 372 352 377 l 322 384 l 307 388 l 291 391 l 280 393 q 264 395 261 395 q 253 395 247 392 l 245 390 l 242 387 q 233 378 249 367 l 256 363 l 265 360 l 280 355 l 315 344 l 340 337 l 362 329 q 381 323 395 316 q 409 308 428 296 q 461 272 478 240 q 496 207 496 170 q 496 134 480 101 q 463 68 428 41 q 398 17 356 4 q 313 -10 259 -10 q 248 -10 236 -9 q 223 -8 216 -8 q 171 -8 136 2 q 102 13 73 30 q 9 68 9 115 q 9 129 13 140 q 21 165 44 180 q 68 196 100 196 q 122 196 149 187 z"},"l":{"x_min":0,"x_max":280,"ha":280,"o":"m 29 675 q 29 720 62 752 q 95 784 142 784 q 187 784 219 751 q 251 718 251 673 l 251 103 q 251 57 219 24 q 187 -9 140 -9 q 94 -9 62 24 q 29 56 29 102 z"},"8":{"x_min":0,"x_max":677,"ha":677,"o":"m 128 399 q 80 452 80 520 q 80 590 130 650 q 157 682 196 702 q 235 721 278 725 q 321 729 345 729 q 415 729 464 708 q 514 688 546 650 q 597 588 597 521 q 597 453 548 399 l 539 390 q 583 373 610 330 q 636 287 636 231 q 636 194 624 160 q 613 126 587 93 q 558 55 511 32 q 464 8 393 -2 q 369 -6 338 -6 q 307 -6 283 -2 q 212 8 164 32 q 117 56 88 94 q 65 125 52 162 q 40 198 40 232 q 40 287 66 330 q 92 373 137 390 z m 372 475 q 387 489 387 507 q 387 523 373 536 q 359 550 337 550 q 327 550 319 546 q 289 535 289 500 q 289 491 298 480 q 308 470 318 466 q 329 463 338 463 q 357 463 372 475 z m 388 213 q 410 232 410 257 q 410 285 386 303 q 362 321 338 321 q 325 321 309 316 q 293 310 280 294 q 268 279 266 261 q 266 242 278 225 q 290 208 312 199 q 323 195 337 195 q 365 195 388 213 z"},"\\":{"x_min":0,"x_max":328,"ha":328,"o":"m 29 720 l 173 720 l 299 0 l 155 0 z"},"e":{"x_min":0,"x_max":621,"ha":621,"o":"m 253 217 l 271 198 q 306 171 386 171 q 412 171 463 185 q 499 194 513 194 q 551 194 576 172 q 600 149 600 115 q 600 102 598 96 q 590 68 568 50 q 547 31 498 14 q 478 8 457 4 q 436 -1 418 -4 q 399 -6 380 -7 q 361 -8 346 -8 q 197 -8 108 74 q 20 155 20 278 q 20 391 106 469 q 191 547 318 547 q 359 547 396 537 q 433 527 467 508 q 527 473 566 416 q 604 358 604 305 q 604 257 584 237 q 564 217 513 217 z m 373 335 q 365 383 317 383 q 309 383 305 382 q 270 374 257 334 l 255 325 l 374 325 z"},"b":{"x_min":0,"x_max":636,"ha":636,"o":"m 29 674 q 29 719 61 752 q 93 785 139 785 q 186 785 218 752 q 251 720 251 673 l 251 530 l 268 536 q 309 550 354 550 q 365 550 373 550 q 381 550 400 546 q 482 531 538 476 q 593 420 610 335 q 616 306 616 276 q 616 172 554 92 q 491 12 402 -3 q 374 -8 353 -8 q 273 -8 226 44 l 226 48 q 208 30 197 21 q 163 -6 138 -6 q 88 -6 58 24 q 29 53 29 106 z m 394 264 q 394 304 373 330 q 352 355 320 355 q 311 355 307 354 q 255 346 244 285 l 243 266 q 243 228 264 204 q 286 181 319 181 q 325 181 335 183 q 361 189 378 210 q 394 231 394 264 z"},"%":{"x_min":0,"x_max":852,"ha":852,"o":"m 150 724 q 184 738 220 738 q 255 738 289 724 q 342 702 372 656 q 403 610 403 555 q 403 536 400 520 q 397 503 389 485 q 374 452 348 426 q 292 372 219 372 q 141 372 87 425 q 33 478 33 554 q 33 608 65 656 q 97 703 150 724 z m 545 692 q 574 733 624 733 q 653 733 676 717 q 695 704 706 684 q 716 664 716 641 q 716 612 700 590 l 308 27 q 298 12 282 2 q 265 -9 246 -14 q 234 -16 228 -16 q 196 -16 170 4 q 145 25 139 59 q 138 65 138 76 q 138 107 155 130 z m 569 332 q 602 345 639 345 q 674 345 708 331 q 759 310 789 264 q 819 217 819 164 q 819 90 764 36 q 710 -17 636 -17 q 602 -17 568 -3 q 516 19 484 64 q 453 110 453 165 q 453 221 484 266 q 515 311 569 332 z m 240 534 q 250 543 250 556 q 250 566 242 574 q 233 583 218 583 q 205 583 196 574 q 186 566 186 554 q 186 542 195 534 q 204 526 217 526 q 226 526 230 528 z m 668 176 q 660 194 638 194 q 634 194 626 192 q 606 184 606 164 q 606 136 636 136 q 643 136 652 139 q 670 146 670 165 q 670 168 668 176 z"},"m":{"x_min":0,"x_max":918,"ha":918,"o":"m 29 436 q 29 484 60 516 q 90 547 141 547 q 176 547 203 526 q 212 519 223 505 l 224 508 q 229 523 251 528 q 273 532 290 536 q 331 548 368 548 q 434 548 497 508 l 517 495 l 545 510 q 557 516 578 524 q 599 533 607 536 q 647 549 688 549 q 773 549 831 495 q 889 441 889 361 l 889 102 q 889 57 857 24 q 825 -9 779 -9 q 732 -9 699 23 q 666 55 666 102 l 666 306 q 666 327 652 341 q 638 355 617 355 q 597 355 582 342 q 568 328 568 307 l 568 101 q 568 54 536 22 q 504 -10 458 -10 q 412 -10 380 23 q 348 56 348 102 l 348 309 q 348 329 334 344 q 321 358 301 358 q 280 358 264 344 q 249 329 249 310 l 249 102 q 249 55 218 23 q 186 -9 140 -9 q 94 -9 62 24 q 29 56 29 102 z"},",":{"x_min":0,"x_max":302,"ha":302,"o":"m 66 164 q 80 194 106 211 q 133 228 165 228 q 189 228 209 218 q 238 204 255 177 q 272 150 272 119 q 272 106 270 96 q 268 86 262 74 l 168 -121 q 149 -160 107 -176 q 90 -183 70 -183 q 38 -183 12 -165 q -13 -147 -24 -116 q -30 -98 -30 -79 q -30 -55 -21 -34 z"},"n":{"x_min":0,"x_max":616,"ha":616,"o":"m 29 436 q 29 485 61 516 q 93 547 139 547 q 178 547 206 520 q 215 511 227 492 q 231 496 232 498 q 237 504 241 506 q 307 548 378 548 q 391 548 399 547 q 407 546 425 543 q 499 528 543 476 q 587 425 587 359 l 587 103 q 587 57 555 24 q 523 -9 476 -9 q 429 -9 396 23 q 363 55 363 102 l 363 310 q 363 334 346 349 q 330 366 307 366 q 284 366 268 350 q 251 333 251 310 l 251 103 q 251 57 219 24 q 187 -8 140 -8 q 93 -8 61 25 q 29 58 29 103 z"},"h":{"x_min":0,"x_max":616,"ha":616,"o":"m 29 676 q 29 721 62 754 q 94 786 140 786 q 187 786 220 754 q 252 721 252 675 l 252 515 l 291 532 q 342 548 389 548 q 478 548 532 496 q 587 443 587 360 l 587 100 q 587 52 554 20 q 521 -12 473 -12 q 427 -12 395 21 q 363 54 363 101 l 363 310 q 363 333 348 350 q 332 366 309 366 q 286 366 269 350 q 252 334 252 311 l 252 101 q 252 55 219 23 q 186 -9 139 -9 q 93 -9 61 23 q 29 55 29 102 z"},"z":{"x_min":0,"x_max":574,"ha":574,"o":"m 454 541 l 481 539 q 508 535 526 514 q 543 494 543 466 q 543 448 536 433 l 524 414 l 340 195 l 470 195 q 510 195 539 167 q 568 139 568 98 q 568 58 540 29 q 512 0 472 0 l 109 0 l 81 1 q 50 4 30 24 q 11 45 11 75 q 11 94 20 114 l 31 130 l 214 346 l 110 346 q 70 346 42 374 q 13 403 13 443 q 13 483 41 512 q 69 541 109 541 z"},"B":{"x_min":0,"x_max":645,"ha":645,"o":"m 29 601 q 29 651 64 686 q 98 720 147 720 l 313 720 l 357 717 q 455 704 512 645 q 570 586 570 505 q 570 496 570 491 q 569 485 569 482 q 563 424 532 383 l 534 381 l 548 372 l 562 363 l 568 358 q 632 306 632 218 q 632 185 622 152 q 611 120 592 94 q 572 69 554 53 q 521 26 484 13 q 446 0 394 0 l 145 0 q 94 0 62 34 q 29 69 29 127 z m 341 469 q 351 476 351 490 q 351 503 340 512 q 328 522 312 522 l 261 522 l 261 458 l 314 458 q 328 458 341 469 z m 401 231 q 401 246 392 256 q 383 266 369 266 l 260 266 l 260 199 l 369 199 q 381 199 391 208 q 401 217 401 231 z"},"K":{"x_min":0,"x_max":681,"ha":681,"o":"m 29 614 q 29 662 63 695 q 97 728 146 728 q 194 728 227 694 q 260 660 260 612 l 260 469 l 463 689 q 477 704 497 715 q 506 720 520 723 q 534 726 546 726 q 580 726 609 708 q 638 690 652 657 q 662 634 662 608 q 662 560 633 534 l 475 384 l 656 183 q 685 151 685 107 q 685 51 641 18 q 622 3 597 -3 q 589 -4 582 -6 q 576 -7 567 -7 q 513 -7 482 31 l 259 301 l 259 108 q 259 59 226 25 q 192 -9 144 -9 q 97 -9 63 26 q 29 61 29 109 z"},"R":{"x_min":0,"x_max":645,"ha":645,"o":"m 29 599 q 29 656 60 688 q 91 720 146 720 l 365 720 q 469 720 534 674 q 600 627 620 542 q 628 507 628 478 q 628 430 610 390 q 593 350 560 321 l 556 317 l 533 299 l 519 288 l 604 176 q 629 144 629 104 q 629 46 580 11 q 549 -11 513 -11 q 453 -11 408 54 l 259 274 l 259 105 q 259 57 226 24 q 193 -9 144 -9 q 97 -9 63 25 q 29 59 29 108 z m 397 481 q 397 498 386 509 q 375 520 360 520 l 260 520 l 260 434 l 356 434 q 375 434 387 448 q 399 461 397 481 z"},"T":{"x_min":0,"x_max":573,"ha":573,"o":"m 482 720 q 523 720 552 690 q 581 660 581 618 q 581 576 552 548 q 523 520 482 520 l 398 520 l 398 105 q 398 58 365 25 q 332 -8 284 -8 q 236 -8 202 26 q 169 59 169 107 l 169 522 l 90 522 q 48 522 20 551 q -8 580 -8 622 q -8 664 21 692 q 50 720 91 720 z"},"P":{"x_min":0,"x_max":638,"ha":638,"o":"m 29 594 q 29 651 60 686 q 92 720 144 720 l 359 720 q 481 720 558 646 q 635 572 635 462 q 635 360 570 292 q 504 224 394 211 l 350 208 l 260 208 l 260 109 q 260 58 226 25 q 192 -8 145 -8 q 97 -8 63 28 q 29 63 29 111 z m 391 424 q 408 441 408 463 q 408 484 391 500 q 374 516 352 516 l 260 516 l 260 408 l 352 408 q 375 408 391 424 z"},"t":{"x_min":0,"x_max":385,"ha":385,"o":"m 83 541 l 83 588 q 83 635 116 668 q 150 700 195 700 q 241 700 274 666 q 306 632 306 586 l 306 541 l 319 541 q 356 541 384 514 q 413 487 413 448 q 413 411 387 385 q 357 355 319 355 l 305 355 l 305 104 q 305 57 272 24 q 240 -9 194 -9 q 148 -9 115 25 q 82 59 82 105 l 82 357 l 74 357 q 32 357 2 387 q -24 413 -24 449 q -24 488 5 514 q 34 541 73 541 z"},"M":{"x_min":0,"x_max":928,"ha":928,"o":"m 94 602 q 108 689 185 718 q 217 730 246 730 q 297 730 336 700 q 375 671 390 621 l 464 370 l 538 621 q 553 670 593 700 q 633 730 683 730 q 712 730 744 718 q 819 690 835 602 l 916 127 q 918 118 918 108 q 918 99 918 89 q 914 48 881 20 q 848 -8 805 -8 q 787 -8 767 -2 q 699 21 691 90 l 656 377 l 564 76 q 544 9 501 -5 q 479 -13 461 -13 q 391 -13 365 76 l 272 377 l 238 90 q 234 59 214 34 q 193 9 162 -2 q 142 -8 123 -8 q 80 -8 48 19 q 16 46 11 89 q 10 94 10 104 q 10 109 10 115 q 12 123 12 127 z"},"g":{"x_min":0,"x_max":635,"ha":635,"o":"m 405 497 q 412 514 419 523 q 443 551 487 556 q 495 557 509 557 q 546 557 565 538 q 606 495 606 436 l 606 97 q 606 -76 520 -161 q 435 -246 271 -246 q 227 -246 192 -237 q 158 -228 130 -212 q 91 -191 70 -164 q 50 -138 50 -111 q 50 -90 60 -70 q 85 -19 139 -19 q 159 -19 177 -26 l 212 -39 l 228 -45 q 268 -58 294 -58 q 302 -57 306 -57 q 377 -49 383 3 l 384 16 q 341 -11 283 -11 q 262 -11 232 -6 q 186 3 146 27 q 86 64 53 125 q 20 186 20 262 q 20 369 81 448 q 142 526 233 543 q 245 546 258 547 q 272 548 286 548 q 323 548 353 536 q 383 525 405 502 z m 394 250 q 396 266 396 272 q 396 279 395 282 q 389 316 368 336 q 348 355 319 355 q 310 355 294 350 q 279 346 262 329 q 241 305 241 268 q 241 231 262 208 q 284 186 317 186 q 327 186 338 189 q 381 201 394 250 z"},"j":{"x_min":0,"x_max":285,"ha":285,"o":"m 33 434 q 33 479 66 512 q 98 546 144 546 q 190 546 222 513 q 255 480 255 433 l 255 -135 q 255 -182 222 -214 q 189 -246 142 -246 q 97 -246 65 -214 q 33 -182 33 -136 z m 62 777 q 95 810 143 810 q 189 810 221 779 q 260 743 260 689 q 260 643 228 606 q 212 588 190 578 q 168 568 144 568 q 94 568 60 604 q 26 641 26 694 q 26 718 35 738 q 44 758 62 777 z"},"i":{"x_min":0,"x_max":286,"ha":286,"o":"m 32 436 q 32 483 64 515 q 96 547 144 547 q 189 547 222 514 q 255 481 255 435 l 255 103 q 255 56 222 24 q 190 -9 143 -9 q 96 -9 64 23 q 32 55 32 102 z m 61 771 q 97 805 143 805 q 191 805 226 770 q 260 735 260 686 q 260 637 226 602 q 191 568 143 568 q 95 568 60 602 q 26 637 26 687 q 26 736 61 771 z"},"y":{"x_min":0,"x_max":518,"ha":518,"o":"m 265 305 l 316 457 q 319 466 325 479 q 331 492 336 502 q 349 524 371 536 q 393 548 421 548 q 445 548 466 539 q 488 530 506 510 q 533 481 533 440 q 533 413 522 390 l 276 -170 q 241 -250 173 -250 q 156 -250 138 -244 q 104 -234 84 -208 q 63 -181 63 -148 q 63 -126 74 -102 l 151 54 l -2 398 q -10 417 -10 437 q -10 468 8 496 q 25 523 52 536 q 80 549 103 549 q 177 549 209 460 z"},".":{"x_min":0,"x_max":305,"ha":305,"o":"m 143 224 q 193 224 228 188 q 264 153 264 102 q 264 51 228 16 q 193 -19 143 -19 q 92 -19 56 17 q 20 53 20 103 q 20 153 56 188 q 91 224 143 224 z"},"p":{"x_min":0,"x_max":636,"ha":636,"o":"m 29 437 q 29 485 62 516 q 95 547 142 547 q 173 547 204 522 q 214 514 229 497 l 229 502 q 229 520 264 536 q 299 551 347 551 q 388 551 428 539 q 467 527 506 499 q 545 471 573 424 q 601 378 611 321 q 616 289 616 265 q 616 233 609 205 q 593 131 550 80 q 508 29 442 5 q 398 -10 357 -10 q 315 -10 270 6 l 249 14 l 249 -142 q 249 -188 216 -220 q 184 -253 139 -253 q 93 -253 61 -220 q 29 -186 29 -141 z m 395 281 q 391 309 374 327 q 357 345 343 348 q 329 350 319 350 q 287 350 266 326 q 245 302 245 262 q 245 224 267 200 q 289 176 320 176 q 352 176 374 200 q 396 224 396 263 q 396 275 395 281 z"},"X":{"x_min":0,"x_max":640,"ha":640,"o":"m 186 387 l 55 538 q 26 571 26 615 q 26 668 68 701 q 101 728 138 728 q 196 728 244 665 l 320 566 l 396 665 q 444 728 502 728 q 538 728 571 701 q 592 685 603 662 q 614 638 614 614 q 614 595 607 575 q 600 555 585 538 l 453 387 l 618 176 q 642 144 642 106 q 642 48 591 12 q 561 -9 528 -9 q 468 -9 424 55 l 320 209 l 216 55 q 172 -9 112 -9 q 79 -9 51 10 q 23 30 10 54 q -3 78 -3 108 q -3 144 21 176 z"},"*":{"x_min":0,"x_max":407,"ha":407,"o":"m 125 543 l 71 546 q 41 549 30 577 q 25 590 25 602 q 25 627 42 648 q 60 670 86 674 q 116 679 134 655 l 165 614 l 141 659 q 136 671 136 679 q 136 693 146 706 q 169 733 204 733 q 238 733 261 706 q 271 695 271 678 q 271 669 266 659 l 242 614 l 273 655 q 291 679 321 674 q 348 670 365 650 q 382 629 382 602 q 382 590 377 577 q 366 549 336 546 l 282 543 l 333 535 q 354 531 368 514 q 382 496 382 474 q 382 460 374 442 q 356 405 323 405 q 286 405 271 430 l 245 475 l 265 428 q 269 419 269 407 q 269 386 258 372 q 239 344 204 344 q 170 344 149 372 q 138 387 138 408 q 138 420 142 428 l 162 475 l 136 430 q 119 402 86 405 q 51 410 33 442 q 25 457 25 475 q 25 498 38 514 q 52 531 74 535 z"},"Y":{"x_min":0,"x_max":641,"ha":641,"o":"m 320 533 l 434 671 q 481 728 536 728 q 570 728 603 703 q 622 689 634 667 q 650 638 650 607 q 650 571 627 545 l 436 338 l 436 108 q 436 61 403 26 q 370 -10 321 -10 q 273 -10 239 24 q 205 59 205 108 l 205 338 l 14 545 q -9 570 -9 608 q -9 625 -6 638 q -3 650 8 670 q 19 689 38 703 q 72 728 106 728 q 160 728 207 671 z"},"c":{"x_min":0,"x_max":549,"ha":549,"o":"m 88 444 q 103 460 110 466 q 116 473 131 484 q 207 542 321 542 q 332 542 342 542 q 353 542 367 540 q 450 531 492 499 q 535 467 535 421 q 535 410 534 404 q 528 367 501 346 q 474 325 435 325 l 418 327 l 413 328 l 387 334 l 374 337 l 353 341 q 338 344 325 344 q 285 344 262 322 q 240 299 240 263 q 240 224 279 201 q 299 190 325 190 q 337 190 355 193 l 393 201 q 409 205 411 205 q 417 206 431 206 q 476 206 506 180 q 537 153 537 112 q 537 102 536 97 q 529 47 478 20 q 428 -8 324 -8 q 242 -8 180 22 q 117 51 76 107 q 49 144 34 186 q 20 228 20 271 q 20 363 88 444 z"},"!":{"x_min":0,"x_max":320,"ha":320,"o":"m 159 224 q 211 224 246 188 q 282 153 282 102 q 282 52 246 16 q 211 -19 160 -19 q 110 -19 74 16 q 38 51 38 102 q 38 152 73 188 q 108 224 159 224 z m 48 624 q 48 670 82 702 q 115 735 160 735 q 206 735 238 702 q 270 668 270 623 l 270 356 q 270 311 238 278 q 206 245 160 245 q 113 245 80 278 q 48 310 48 357 z"},"/":{"x_min":0,"x_max":451,"ha":451,"o":"m 265 724 q 276 750 300 766 q 324 782 351 782 q 369 782 388 774 q 444 750 444 688 q 444 669 437 654 l 186 39 q 176 13 152 -2 q 129 -17 101 -17 q 82 -17 65 -10 q 38 0 22 24 q 7 47 7 76 q 7 94 14 109 z"},"[":{"x_min":0,"x_max":397,"ha":397,"o":"m 38 753 q 38 789 59 811 q 80 833 113 833 l 289 833 q 330 833 359 804 q 388 775 388 734 q 388 693 360 664 q 332 635 291 635 l 268 635 l 268 85 l 291 85 q 330 85 359 56 q 388 27 388 -14 q 388 -55 359 -84 q 330 -113 289 -113 l 113 -113 q 81 -113 60 -90 q 38 -68 38 -33 z"},"6":{"x_min":0,"x_max":676,"ha":676,"o":"m 410 469 l 457 462 q 532 448 579 390 q 626 332 626 253 q 626 204 605 153 q 573 77 506 34 q 438 -9 345 -9 q 320 -9 294 -6 q 179 8 114 75 q 49 142 49 245 q 49 334 99 435 l 132 496 q 176 570 211 608 q 276 678 307 702 q 342 729 373 729 q 383 729 394 726 q 406 723 419 718 q 447 706 464 683 q 490 649 490 619 q 490 582 444 531 l 440 527 l 410 496 l 404 489 l 388 471 z m 374 208 q 395 223 395 246 q 395 268 377 283 q 359 298 334 298 q 322 298 313 294 q 275 279 275 240 q 275 228 286 216 q 296 205 313 198 q 327 194 336 194 q 355 194 374 208 z"},"r":{"x_min":0,"x_max":420,"ha":420,"o":"m 29 436 q 29 482 62 514 q 94 547 140 547 q 194 547 224 512 q 234 501 243 477 l 261 502 q 278 527 298 536 q 319 545 346 545 q 362 545 374 541 q 403 533 424 512 q 444 492 449 464 q 451 456 451 440 q 451 370 349 337 l 329 329 q 278 307 264 286 q 250 264 250 206 l 250 109 q 250 61 218 27 q 186 -7 140 -7 q 94 -7 62 24 q 29 56 29 101 z"},"2":{"x_min":0,"x_max":676,"ha":676,"o":"m 530 200 q 572 200 601 171 q 630 142 630 100 q 630 59 602 30 q 573 0 531 0 l 164 0 q 118 0 92 20 q 55 50 55 94 q 55 137 90 172 l 211 293 l 281 367 l 342 437 l 361 458 l 371 471 l 378 481 q 385 492 385 504 q 385 522 359 531 l 344 533 q 323 533 312 528 q 302 523 286 506 l 259 472 q 210 413 153 413 q 121 413 92 434 q 52 466 52 519 q 52 557 74 594 q 95 632 142 666 q 226 728 342 728 q 400 728 454 711 q 532 686 574 632 q 617 579 617 509 q 617 438 571 370 q 536 317 488 266 q 453 228 420 200 z"},"{":{"x_min":0,"x_max":410,"ha":410,"o":"m 96 432 l 96 742 q 96 790 122 816 q 148 842 195 842 l 338 842 q 355 842 368 829 q 381 816 381 798 q 381 780 368 768 q 355 756 338 756 l 325 756 q 295 756 282 745 q 269 734 269 708 l 269 454 q 269 390 207 366 l 180 360 l 207 354 q 235 343 252 319 q 269 295 269 266 l 269 12 q 269 -36 325 -36 l 338 -36 q 355 -36 368 -49 q 381 -62 381 -80 q 381 -98 368 -110 q 355 -122 338 -122 l 195 -122 q 148 -122 122 -96 q 96 -70 96 -22 l 96 288 q 96 318 77 339 q 58 360 29 360 q 58 360 77 380 q 96 400 96 432 z"},"9":{"x_min":0,"x_max":676,"ha":676,"o":"m 265 248 q 163 261 106 317 q 49 373 49 460 q 49 480 50 490 q 51 500 56 521 q 76 616 150 672 q 223 727 331 727 q 355 727 381 724 q 495 710 561 643 q 627 576 627 473 q 627 383 577 282 l 543 221 q 521 184 500 154 q 480 125 464 109 q 402 40 367 14 q 332 -12 302 -12 q 292 -12 280 -9 q 269 -6 256 -1 q 229 10 211 33 q 186 65 186 97 q 186 136 232 186 l 235 189 l 265 221 l 271 228 l 288 246 z m 382 434 q 400 449 400 471 q 400 493 382 508 q 365 524 340 524 q 331 524 316 520 q 302 515 291 500 q 280 486 280 470 q 280 449 298 434 q 316 419 340 419 q 352 419 364 424 q 375 428 382 434 z"}," ":{"x_min":0,"x_max":290,"ha":290,"o":""},"I":{"x_min":0,"x_max":289,"ha":289,"o":"m 29 612 q 29 659 63 693 q 97 727 145 727 q 192 727 226 693 q 260 659 260 611 l 260 106 q 260 58 226 24 q 191 -9 144 -9 q 96 -9 62 25 q 29 59 29 108 z"},"H":{"x_min":0,"x_max":749,"ha":749,"o":"m 29 612 q 29 660 64 694 q 99 728 145 728 q 194 728 228 694 q 261 659 261 611 l 261 466 l 488 466 l 488 611 q 488 659 522 694 q 557 728 605 728 q 652 728 686 694 q 720 660 720 612 l 720 106 q 720 58 686 24 q 653 -10 605 -10 q 557 -10 523 23 q 489 56 489 106 l 489 266 l 260 266 l 260 106 q 260 56 226 24 q 211 8 188 -1 q 166 -10 145 -10 q 97 -10 63 24 q 29 58 29 106 z"},"4":{"x_min":0,"x_max":676,"ha":676,"o":"m 271 642 q 304 689 334 709 q 365 729 401 729 q 485 729 522 685 q 559 641 559 546 l 559 332 l 569 332 q 609 332 638 303 q 667 274 667 233 q 667 192 638 163 q 609 134 567 134 l 557 134 l 557 109 q 557 61 523 27 q 489 -7 441 -7 q 394 -7 360 26 q 326 59 326 108 l 326 136 l 124 136 l 97 138 q 56 144 32 172 q 7 199 7 236 q 7 251 9 260 q 10 264 15 275 l 29 300 z m 327 491 l 225 333 l 327 333 z"},"~":{"x_min":0,"x_max":519,"ha":519,"o":"m 29 265 l 30 293 q 38 377 74 420 q 109 463 165 463 q 192 463 229 450 l 314 418 l 334 411 q 343 407 352 407 q 370 407 380 438 l 384 455 l 385 464 l 490 464 l 488 437 q 481 353 446 310 q 411 267 354 267 q 336 267 320 270 q 305 274 289 280 l 205 311 l 184 319 q 172 323 168 323 q 149 323 139 292 q 135 282 135 275 l 134 265 z"},"D":{"x_min":0,"x_max":738,"ha":738,"o":"m 145 720 l 303 720 q 471 720 573 650 q 675 580 708 446 q 718 403 718 356 q 718 202 611 101 q 504 0 338 0 l 144 0 q 97 0 63 34 q 29 68 29 117 l 29 604 q 29 653 62 686 q 96 720 145 720 z m 484 396 q 473 451 425 486 q 377 520 306 520 l 260 520 l 260 199 l 315 199 q 393 199 441 243 q 489 287 489 356 q 489 373 484 396 z"},"^":{"x_min":0,"x_max":525,"ha":525,"o":"m 29 149 l 262 571 l 496 149 l 332 149 l 262 295 l 193 149 z"},"0":{"x_min":0,"x_max":677,"ha":677,"o":"m 25 429 q 38 518 78 582 q 118 646 182 684 q 259 730 339 730 q 418 730 495 684 q 558 646 598 582 q 638 518 651 429 q 654 413 655 388 q 656 363 656 360 q 656 343 655 326 q 654 308 651 291 q 638 204 598 140 q 557 76 495 38 q 419 -9 339 -9 q 298 -9 260 2 q 223 13 182 38 q 119 75 79 139 q 39 203 25 291 q 21 324 20 338 q 20 352 20 360 q 20 391 25 429 z m 328 184 q 332 183 341 183 q 394 183 424 253 l 435 287 q 443 323 443 363 q 443 435 415 482 q 387 529 353 534 q 348 535 338 535 q 311 535 292 520 q 273 504 255 466 q 234 424 234 360 l 236 324 q 245 256 270 220 q 292 189 328 184 z"},"F":{"x_min":0,"x_max":504,"ha":504,"o":"m 29 603 q 29 653 62 686 q 96 720 146 720 l 419 720 q 461 720 491 690 q 521 660 521 619 q 521 578 490 547 q 458 518 418 518 l 261 518 l 261 447 l 394 447 q 435 447 464 417 q 493 387 493 346 q 493 304 464 276 q 435 248 393 248 l 261 248 l 261 103 q 261 55 227 21 q 193 -13 145 -13 q 97 -13 63 21 q 29 55 29 103 z"},"`":{"x_min":0,"x_max":311,"ha":311,"o":"m 91 794 l 273 720 q 293 712 305 694 q 317 676 317 655 q 317 641 311 627 q 294 583 245 583 q 229 583 219 588 l 37 659 q 16 667 4 686 q -9 704 -9 727 q -9 743 -4 754 q 14 799 65 799 q 80 799 91 794 z"},"k":{"x_min":0,"x_max":564,"ha":564,"o":"m 29 675 q 29 720 62 752 q 94 785 139 785 q 184 785 217 753 q 250 721 250 675 l 250 399 l 329 501 q 343 520 368 533 q 393 546 421 546 q 439 546 456 540 q 490 529 509 502 q 528 476 528 441 q 528 415 516 393 q 505 371 487 351 l 433 296 l 546 165 q 568 138 568 101 q 568 76 556 52 q 536 9 488 -5 q 475 -9 456 -9 q 397 -9 366 38 l 250 207 l 250 100 q 250 54 218 22 q 186 -11 139 -11 q 94 -11 62 22 q 29 55 29 101 z"},"u":{"x_min":0,"x_max":613,"ha":613,"o":"m 29 436 q 29 482 62 514 q 94 547 141 547 q 187 547 220 514 q 252 480 252 434 l 252 244 q 252 216 264 202 q 277 188 296 184 q 328 179 347 202 q 360 215 360 244 l 360 434 q 360 481 393 514 q 426 547 472 547 q 519 547 552 514 q 584 482 584 436 l 584 243 q 584 127 530 66 q 475 6 358 -8 q 332 -11 307 -11 q 281 -11 255 -8 q 138 6 84 66 q 29 127 29 243 z"},"]":{"x_min":0,"x_max":397,"ha":397,"o":"m 129 85 l 129 635 l 106 635 q 67 635 38 664 q 9 693 9 734 q 9 775 38 804 q 67 833 108 833 l 285 833 q 316 833 338 810 q 359 788 359 753 l 359 -33 q 359 -69 338 -91 q 317 -113 285 -113 l 108 -113 q 67 -113 38 -84 q 9 -55 9 -14 q 9 27 37 56 q 65 85 106 85 z"},"U":{"x_min":0,"x_max":769,"ha":769,"o":"m 29 611 q 29 659 62 694 q 96 729 145 729 q 192 729 226 695 q 260 661 260 613 l 260 316 q 260 265 286 232 q 312 199 360 191 q 368 189 385 189 q 401 189 409 191 q 457 199 483 232 q 509 264 509 316 l 509 613 q 509 661 543 695 q 577 729 624 729 q 673 729 706 694 q 740 660 740 611 l 740 323 q 740 189 665 104 q 590 19 447 -3 q 439 -5 422 -6 q 404 -8 384 -8 q 369 -8 353 -7 q 337 -6 321 -3 q 178 19 104 104 q 29 188 29 323 z"},"o":{"x_min":0,"x_max":632,"ha":632,"o":"m 316 550 q 433 550 515 479 q 563 438 588 384 q 612 329 612 270 q 612 196 575 132 q 538 67 468 28 q 399 -11 316 -11 q 191 -11 106 70 q 20 150 20 267 q 20 385 104 468 q 189 550 316 550 z m 392 248 q 394 262 394 269 q 394 297 381 318 q 357 357 316 357 q 275 357 251 318 q 238 297 238 268 q 238 228 261 202 q 284 175 316 175 q 321 175 331 177 q 383 188 392 248 z"},"N":{"x_min":0,"x_max":756,"ha":756,"o":"m 29 611 q 29 648 48 677 q 67 706 101 720 q 122 729 144 729 q 196 729 242 674 l 496 376 l 496 611 q 496 634 505 655 q 514 676 531 693 q 567 727 612 727 q 659 727 693 693 q 727 659 727 611 l 727 107 l 725 84 q 717 43 685 18 q 653 -8 611 -8 q 596 -8 580 -4 q 565 0 551 9 q 533 21 522 34 l 260 352 l 260 108 q 260 59 226 26 q 193 -8 147 -8 q 97 -8 63 30 q 29 68 29 119 z"},"G":{"x_min":0,"x_max":801,"ha":801,"o":"m 481 237 q 439 237 409 267 q 379 297 379 339 q 379 380 408 410 q 438 439 480 439 l 674 439 q 781 439 781 321 q 781 288 774 252 q 767 206 740 159 q 696 80 614 36 q 532 -9 426 -9 q 386 -9 336 -1 q 234 16 160 73 q 86 130 49 217 q 20 282 20 357 q 20 450 66 532 q 113 613 202 669 q 249 699 303 714 q 357 728 419 728 q 430 728 443 727 q 456 726 463 726 q 513 722 564 706 q 614 690 655 665 q 740 611 740 547 q 740 508 705 478 q 680 456 644 456 q 620 456 590 468 l 547 490 l 526 501 q 466 529 411 529 q 347 529 304 492 q 261 454 250 388 q 247 374 247 361 q 247 346 250 329 q 263 264 306 228 q 350 191 416 191 q 441 191 470 197 q 498 203 514 212 q 530 221 541 237 z"},"q":{"x_min":0,"x_max":634,"ha":634,"o":"m 404 494 q 413 516 421 526 q 448 559 490 559 q 519 559 534 556 q 550 553 563 540 q 605 496 605 436 l 605 -144 q 605 -189 574 -222 q 542 -254 497 -254 q 450 -254 417 -222 q 384 -190 384 -143 l 384 11 q 351 -3 314 -8 q 306 -9 298 -10 q 291 -10 281 -10 q 171 -10 96 68 q 20 147 20 262 q 20 293 26 326 q 32 359 45 386 q 79 464 142 506 q 205 549 276 549 q 354 549 404 499 z m 328 180 q 379 188 390 247 q 392 257 392 264 q 392 270 389 289 q 386 308 370 327 q 349 352 316 352 q 281 352 260 325 q 253 316 248 304 q 242 291 241 276 l 240 261 l 241 247 q 253 179 313 179 q 323 179 328 180 z"},"d":{"x_min":0,"x_max":638,"ha":638,"o":"m 388 675 q 388 721 420 753 q 452 785 499 785 q 545 785 577 752 q 609 719 609 673 l 609 104 q 609 53 578 24 q 546 -6 499 -6 q 472 -6 437 21 q 426 30 407 49 l 407 45 q 407 16 378 3 q 350 -10 304 -10 q 284 -10 264 -8 q 244 -5 234 -3 q 155 12 98 71 q 42 130 25 218 q 21 246 20 257 q 20 268 20 275 q 20 308 27 336 q 41 395 74 440 q 106 485 154 513 q 212 547 275 547 q 321 547 371 529 l 388 522 z m 392 256 q 394 266 394 272 q 394 277 392 289 q 387 317 372 334 q 356 352 338 356 q 321 359 315 359 q 255 359 242 287 l 241 271 q 241 231 264 206 q 286 182 319 182 q 347 182 366 202 q 386 221 392 256 z"},"1":{"x_min":0,"x_max":677,"ha":677,"o":"m 356 720 q 406 720 435 691 q 464 662 464 611 l 464 107 q 464 59 430 26 q 396 -7 348 -7 q 301 -7 267 27 q 233 61 233 108 l 233 520 l 200 520 q 159 520 129 550 q 99 579 99 621 q 99 662 129 691 q 159 720 199 720 z"},"5":{"x_min":0,"x_max":678,"ha":678,"o":"m 148 638 q 152 661 170 682 q 187 703 208 712 q 229 720 248 720 l 523 720 q 564 720 592 690 q 621 661 621 617 q 621 574 592 545 q 563 516 523 516 l 331 516 l 318 455 l 327 457 l 340 459 q 368 464 400 464 q 491 464 550 402 q 610 341 610 253 q 610 235 609 226 q 608 217 604 202 q 601 187 598 180 q 596 173 585 146 q 550 70 482 29 q 414 -12 314 -12 q 284 -12 242 -6 q 199 -1 165 11 q 131 23 114 32 q 97 41 81 54 q 45 86 45 133 q 45 178 78 205 q 97 219 114 224 q 131 230 150 230 q 172 230 210 217 l 222 213 l 245 205 l 258 201 q 293 192 313 192 q 328 192 339 196 q 379 209 379 244 q 379 259 369 274 q 359 290 328 296 q 318 298 312 298 q 295 298 257 283 l 236 275 l 232 273 q 211 264 190 264 q 159 264 136 283 q 100 309 100 356 q 100 367 101 372 z"}}}
